<svg xmlns="http://www.w3.org/2000/svg" viewBox="0 0 4650.15 2171.4"><g id="Layer_2" data-name="Layer 2"><g id="Layer_1-2" data-name="Layer 1"><rect width="4650.15" height="2171.4"/><path d="M2770.94,1744.44q-66.21-20.16-104.77-53.49l39.45-88.54q37.7,29.82,92.49,48.66a336.19,336.19,0,0,0,110,18.84q68.37,0,102.13-21.91t33.75-57.86q0-26.3-18.84-43.4T2977.4,1520q-28.93-9.63-78.91-21.92-70.14-16.63-113.52-33.31a186.61,186.61,0,0,1-74.53-52.16q-31.12-35.5-31.11-96,0-50.83,27.61-92.49t83.28-66.19q55.67-24.53,136.33-24.54a441,441,0,0,1,110.46,14c36.23,9.36,2.92,101.12-26.3,92.93s-57.58-12.27-85-12.27q-67.52,0-100.38,22.79t-32.87,60.49q0,26.3,18.84,43t47.78,26.3q28.93,9.66,78.91,21.92,68.37,15.78,112.21,32.87a192.32,192.32,0,0,1,75,52.17q31.11,35.07,31.13,94.68,0,50.85-27.62,92t-83.72,65.75q-56.12,24.54-136.76,24.54A468.56,468.56,0,0,1,2770.94,1744.44Z" fill="#fff"/><path d="M1395.44,1287v468.14H1291.11v-59.61q-26.29,31.56-65.75,48.65t-85,17.1q-93.81,0-147.72-52.16t-53.91-154.74V1287h109.58v252.48q0,63.12,28.49,94.24t81.1,31.13q58.73,0,93.36-36.39t34.63-104.76V1287Z" fill="#fff"/><path d="M2270.37,1333q51.72,51.29,51.72,153.86v268.26H2212.51V1500.9q0-61.35-27.18-92.48t-78-31.13q-55.23,0-88.54,36.38t-33.31,103.89v237.58H1875.86V1500.9q0-61.35-27.18-92.48t-78-31.13q-56.12,0-89,36t-32.87,104.32v237.58H1539.22V1287h104.32v59.61q26.3-31.56,65.75-48.22t87.67-16.66q52.61,0,93.37,19.73a151.61,151.61,0,0,1,64.43,58.3q28.93-36.83,74.52-57.42t100.82-20.61Q2218.65,1281.73,2270.37,1333Z" fill="#fff"/><path d="M2467.61,1191q-20.16-18.84-20.16-46.9t20.16-46.91q20.16-18.84,50-18.85t50,18q20.14,18,20.16,45.15,0,28.92-19.73,48.65t-50.41,19.73Q2487.78,1209.85,2467.61,1191Zm-5.26,96h109.59v468.14H2462.35Z" fill="#fff"/><path d="M3138,1221.56c-12.82,38.47-111.72,66-136.77,55.56-13-5.42-45.21-51.28-72.65-51.28-15.3,0-34.36,2.39-47,4.19v-93.94c13.67-1,51.28,0,55.56,0,47.59,0,94.28-37.1,119.66-25.64S3150.49,1184.17,3138,1221.56Z" fill="#fff"/><path d="M3638.41,1311.54q53.93,29.82,84.6,84.16t30.69,125.37q0,71-30.69,125.8t-84.6,84.6q-53.91,29.82-122.29,29.81-94.68,0-149.91-63.12v227.06H3256.62V1287h104.32v61.36a169.59,169.59,0,0,1,67.07-50q39.88-16.64,88.11-16.66Q3584.51,1281.73,3638.41,1311.54Zm-35.06,315.6q39-40.31,39-106.07t-39-106.08q-39-40.32-99.5-40.33-39.46,0-71,18t-50,51.28q-18.41,33.33-18.41,77.15t18.41,77.15q18.41,33.32,50,51.28t71,18Q3564.33,1667.47,3603.35,1627.14Z" fill="#fff"/><line x1="3099.54" y1="1208.74" x2="3159.38" y2="1225.84" fill="none" stroke="#fff" stroke-linecap="round" stroke-miterlimit="10" stroke-width="25.64"/><line x1="3213.65" y1="1197.72" x2="3160.66" y2="1228.32" fill="none" stroke="#fff" stroke-linecap="round" stroke-miterlimit="10" stroke-width="25.64"/><line x1="3192.54" y1="1281.1" x2="3161.94" y2="1228.11" fill="none" stroke="#fff" stroke-linecap="round" stroke-miterlimit="10" stroke-width="25.64"/><path d="M674,1247.86q-30.65-76.29-74.49-107.4T493.4,1109.34a217.92,217.92,0,0,0-69.28,11.41q-34.17,11.41-56.11,31.54l43.85,80.65a119,119,0,0,1,37.26-23.63,113.67,113.67,0,0,1,43.38-8.81q28.92,0,47.78,14.92,18,14.3,33.25,47c.47,1,.9,2,1.37,3l7.91,18.42,57,123.6L788,1753.71H893.17Z" fill="#fff"/><path d="M595.14,1497.31,492.5,1753.71H378.56L535.05,1362.5C553.65,1405.06,576.55,1454.74,595.14,1497.31Z" fill="#fff"/><path d="M4062.94,1789.13q-30.64,76.29-74.49,107.4t-106.08,31.11a217.69,217.69,0,0,1-69.28-11.41q-34.17-11.42-56.11-31.54l43.85-80.65a119.05,119.05,0,0,0,37.26,23.64,113.84,113.84,0,0,0,43.38,8.8q28.92,0,47.79-14.92,18-14.3,33.25-47c.47-1,.89-2,1.36-3l7.91-18.42,57-123.6,148.17-346.3h105.23Z" fill="#fff"/><path d="M3984.11,1539.68l-102.64-256.4H3767.53L3924,1674.49C3942.62,1631.92,3965.52,1582.24,3984.11,1539.68Z" fill="#fff"/><path id="path833-6-75-1-8" d="M3302.17,863.39c-25.56-22.31-52.52-53.91-82.81-46.7s-40.62,48.78-50.49,78.43c-9.93,29.83-20.21,71.21-50.5,78.42s-59.38-25.2-82.8-46.7c-24.28-22.29-52.51-53.91-82.8-46.7s-40.44,48.84-50.49,78.42c-10.53,31-20.21,71.22-50.5,78.43s-59-25.63-82.8-46.7c-25.27-22.37-52.51-53.91-82.8-46.7s-50.5,78.42-50.5,78.42,16-74.34,45.28-84.92,57.78,18.42,83.79,38.35c24.5,18.77,54.46,48.93,83.78,38.35s36.64-52.39,45.28-84.92c8.24-31.07,16-74.34,45.27-84.93s58.76,18.4,83.79,38.35c24.15,19.25,54.46,48.93,83.79,38.35s37.16-53.62,45.27-84.92c8.07-31.11,16-74.34,45.28-84.92s57.5,18.51,83.79,38.35c44.75,45,45.92,95.78,21.16,74.24Z" fill="red"/><path id="path833-6-2-3-2-7" d="M2941.77,546.84c-19.87,19.75-9,65.48-2.91,93.12,6.15,27.8,17.36,64.74-2.51,84.49s-57.09,8.17-84.94,2.4c-28.86-6-65.06-17.34-84.93,2.4s-8.46,56.82-2.52,84.5c6.23,29,17.36,64.74-2.52,84.49s-57,7.64-84.93,2.4c-29.65-5.57-65.06-17.35-84.93,2.4s-2.52,84.49-2.52,84.49-22-65.18-4.47-87.1,52.74-12.68,81.84-9.35c27.41,3.14,64.25,12.57,81.83-9.35s3.91-57.8-4.47-87.1c-8-28-22.05-65.18-4.47-87.1s53.47-13.15,81.83-9.35c27.37,3.68,64.26,12.57,81.84-9.34s3.74-59-4.47-87.1c-8.16-27.93-20.61-58.89-4.47-87.1,87.64-63.6,127.55,20.23,239.31,32.2,14.82,1.59-12,44.68-31.93,39.92C2984.89,558.91,2977.69,518.9,2941.77,546.84Z" fill="#ff7f2a"/><path id="path833-6-7-5-7-9" d="M2773.72,399.92c-7.6,22.68-40.83,28.46-64.26,35.94-25,8-56.67,13.26-64.26,35.94s15.44,45.77,30.85,63.87,38.45,41.19,30.86,63.87-40.65,29-64.26,35.94c-24.47,7.17-56.67,13.26-64.26,35.94s15.56,45.68,30.86,63.87c16,19.06,38.44,41.19,30.85,63.87s-40.78,28.61-64.26,35.94c-24.92,7.78-56.66,13.26-64.26,35.94s30.86,63.87,30.86,63.87-42.22-39.63-37.24-63,35.57-30.63,59.19-39.86c22.26-8.69,54.2-16.49,59.19-39.86s-19.43-44.58-37.23-63c-17-17.6-42.23-39.63-37.24-63s35.94-31.29,59.19-39.87c22.42-8.27,54.2-16.48,59.19-39.86s-20-45.39-37.24-63-42.22-39.62-37.23-63,35.5-30.42,59.18-39.86c22.2-8.85,54.2-16.49,59.19-39.86,14.84-65.41-97.92-97.92-92.94-121.29C2626.44,235.5,2794.08,275.42,2773.72,399.92Z" fill="#fc0"/><path id="path833-6-0-6-0-2" d="M2363,239.49c15.27,14.1-55.89,87.82-42.74,128.84,4.72,20.24,52.18,33.84,52.18,33.84s47.45,13.6,52.17,33.84-17.37,39.28-31.39,55.24c-15,17-36.11,35-31.39,55.24s32.42,27.21,52.17,33.85,47.46,13.59,52.18,33.84-17,39.63-31.39,55.24c-14.94,16.18-36.11,35-31.39,55.24s32.47,27.09,52.17,33.84c20.64,7.08,47.46,13.6,52.18,33.84s-17.27,39.38-31.39,55.25c-15,16.84-36.12,35-31.39,55.24s52.17,33.84,52.17,33.84-49.55-10.76-56.52-30.36,12.45-38.57,25.82-55.92c12.59-16.33,32.8-36.3,25.82-55.91s-34.85-24.55-56.52-30.36c-20.7-5.56-49.55-10.76-56.53-30.37s12.44-39.22,25.82-55.91c12.91-16.1,32.8-36.31,25.83-55.91s-35.67-24.9-56.53-30.37-49.55-10.76-56.52-30.36,12.51-38.38,25.82-55.92c12.47-16.42,32.8-36.3,25.82-55.91S2312.92,419,2312.92,419s-45.72-11.87-57.7-43.8C2267.2,275.42,2351.66,229,2363,239.49Z" fill="#2ca02c"/><path id="path833-6-9-2-9-0" d="M1987.19,479.5c-4.26,18.12-12,40.76-.24,53.72s34.84,6.51,52,3.32c18-3.34,40.25-9.64,52,3.32s3.56,36.17-.24,53.71c-4,18.63-12,40.76-.24,53.72s52,3.32,52,3.32,40.25-9.65,52,3.32,3.45,36.14-.23,53.71c-3.93,18.75-12,40.76-.24,53.72s34.86,6.61,52,3.31,40.25-9.64,52,3.32,3.88,36.24-.24,53.72c-4.25,18.12-12,40.75-.23,53.71s34.84,6.51,52,3.32c18-3.33,40.25-9.64,52,3.32s3.56,36.17-.24,53.72c-4,18.62-12,40.75-.23,53.71s52,3.32,52,3.32-40.61,12.6-53.76,1.05-6.75-33.59-4.11-51.91c2.48-17.25,9.05-40.34-4.1-51.9s-35.54-3.65-53.76,1.05c-17.41,4.49-40.62,12.6-53.77,1s-7-34.06-4.1-51.91c2.81-17.21,9.05-40.34-4.1-51.9s-36.29-3.57-53.77,1-40.61,12.6-53.76,1-6.63-33.47-4.1-51.9c2.36-17.27,9-40.35-4.11-51.9s-53.76,1-53.76,1-40.61,12.61-53.76,1.05-6.75-33.58-4.11-51.9c2.48-17.25,9-40.35-4.1-51.9s-35.54-3.65-53.76,1.05c-17.41,4.49-40.62,12.6-53.77,1s-7-34-4.1-51.9c7.9-31.78,59.18-77.22,54.83-55.6Z" fill="#2a7fff"/><path id="path833-6-3-9-3-2" d="M1742.61,838.43c18.34-16.24,26.81-26.32,42-21.95s19.79,25.89,24.69,41.18c5.08,15.86,9.55,36.82,24.7,41.19s30.09-11.43,42-22c12.43-11,26.82-26.31,42-21.94s19.52,26,24.7,41.18c5.49,16.14,9.55,36.81,24.7,41.19s42-22,42-22,26.81-26.32,42-21.94,19.42,26,24.69,41.18c5.64,16.19,9.55,36.81,24.7,41.18s30.16-11.35,42-21.94,26.82-26.32,42-22,19.8,25.89,24.7,41.19c5.08,15.86,9.55,36.81,24.7,41.18s30.09-11.42,42-21.94c12.43-11,26.81-26.32,42-22s19.52,26,24.7,41.19c5.49,16.14,9.55,36.81,24.69,41.18s42-21.94,42-21.94-25.72,28.75-41.29,26.1-20.8-22.5-27.24-37.75c-6.06-14.37-11.66-35.11-27.23-37.75s-29.31,13.93-41.3,26.1c-11.45,11.62-25.72,28.75-41.3,26.11s-21.23-22.74-27.23-37.76c-5.79-14.49-11.66-35.1-27.23-37.75s-29.85,14.35-41.3,26.1-25.73,28.76-41.3,26.11-20.65-22.47-27.23-37.75c-6.16-14.32-11.66-35.11-27.23-37.75s-41.3,26.1-41.3,26.1-25.73,28.75-41.3,26.11-20.8-22.51-27.23-37.76c-6.06-14.36-11.66-35.1-27.23-37.75s-29.31,13.94-41.3,26.1c-11.45,11.62-25.73,28.76-41.3,26.11S1798.41,941,1792.41,926c-5.79-14.49-11.66-35.11-27.24-37.75s-26.72,14.32-41.29,26.1.38-59.68,18.73-75.91Z" fill="#7f2aff"/></g></g></svg>