<svg xmlns="http://www.w3.org/2000/svg" viewBox="0 0 1894.57 1894.57"><g id="Layer_2" data-name="Layer 2"><g id="Layer_1-2" data-name="Layer 1"><rect width="1894.57" height="1894.57"/><path d="M721.34,719.82q-37.46-93.26-91.05-131.28t-129.66-38A266.31,266.31,0,0,0,416,564.45Q374.18,578.4,347.35,603L401,701.59a145.37,145.37,0,0,1,45.56-28.89,138.93,138.93,0,0,1,53-10.76q35.34,0,58.41,18.23,22,17.48,40.64,57.41c.57,1.2,1.1,2.4,1.67,3.66l9.67,22.51,69.63,151.08,181.12,423.31H989.29Z" fill="#fff"/><path d="M625,1024.73,499.53,1338.14H360.26L551.54,860C574.27,912,602.26,972.7,625,1024.73Z" fill="#fff"/><path d="M1284.88,1478.27q-37.45,93.24-91.05,131.28t-129.66,38a266.15,266.15,0,0,1-84.69-13.95q-41.76-14-68.59-38.55l53.6-98.58a145.44,145.44,0,0,0,45.56,28.89,139.09,139.09,0,0,0,53,10.76q35.34,0,58.4-18.23,22-17.48,40.65-57.41c.57-1.21,1.09-2.41,1.67-3.66l9.66-22.52,69.64-151.08L1424.21,860h128.61Z" fill="#fff"/><path d="M1188.53,1173.35,1063.07,860H923.8l191.28,478.19C1137.81,1286.11,1165.8,1225.39,1188.53,1173.35Z" fill="#fff"/><path id="path833-6-75-1-8" d="M1846.34,396.74c-29-8.05-62.81-23-84.31-5.58s-13.8,54.7-10.31,82.26c3.52,27.72,11.2,64.84-10.31,82.26s-57.27,2.64-84.31-5.58c-28-8.52-62.81-23-84.31-5.58s-13.63,54.68-10.31,82.26c3.48,28.87,11.19,64.84-10.31,82.26s-57.14,2.15-84.31-5.58c-28.85-8.21-62.81-23-84.31-5.59s-10.31,82.26-10.31,82.26-15.81-65.7,3.63-85.46,53.38-7.45,81.89-1.49c26.85,5.62,62.46,18.27,81.89-1.48s9.21-56.08,3.63-85.47c-5.34-28.06-15.81-65.7,3.62-85.46s54.16-7.85,81.89-1.49c26.76,6.14,62.46,18.27,81.9-1.48s9.15-57.26,3.62-85.47c-5.5-28-15.8-65.7,3.63-85.46s53.2-7.28,81.89-1.49c53.17,18.85,73.63,59.11,45.51,51.36Z" fill="red"/><path id="path833-6-2-3-2-7" d="M1531.7,297.89c-12.28,21.66,8,58.21,19.82,80.4s30.36,51.27,18.08,72.93-46.9,20.66-72.12,22.4c-26.15,1.79-59.85.74-72.13,22.4s6.37,50.66,18.09,72.92c12.26,23.32,30.36,51.27,18.08,72.93s-47,20.2-72.13,22.4c-26.72,2.33-59.84.74-72.12,22.4s18.08,72.92,18.08,72.92-34.49-50.51-24.69-73.48,42.11-23.48,67.81-27.61c24.22-3.88,58-4.63,67.81-27.6s-10.5-50.41-24.69-73.48c-13.56-22-34.49-50.52-24.69-73.49s42.62-24.06,67.81-27.6c24.31-3.41,58-4.64,67.81-27.61s-10.93-51.39-24.69-73.48-31.75-45.47-24.69-73.48c59.78-75.43,114-13.24,212.56-29.76,13.06-2.19.44,41.12-17.77,41.82C1571.5,297.89,1555.76,265.37,1531.7,297.89Z" fill="#ff7f2a"/><path id="path833-6-7-5-7-9" d="M1429.4,233.89c-4.74,20.72-33.63,28.73-53.71,37.39-21.42,9.25-49,16.68-53.7,37.4s17.65,39.14,32.87,53.8,37.6,33.09,32.86,53.81-33.42,29.22-53.7,37.4c-21,8.47-49,16.67-53.71,37.39s17.75,39.05,32.87,53.81c15.83,15.46,37.6,33.08,32.86,53.8s-33.57,28.87-53.7,37.4c-21.37,9.06-49,16.67-53.71,37.4s32.87,53.8,32.87,53.8-40.81-31.37-38.43-52.48,28.78-30.2,48.87-40.42c18.93-9.63,46.51-19.32,48.88-40.43s-21.08-37.73-38.43-52.47c-16.57-14.09-40.81-31.37-38.44-52.48s29.06-30.81,48.88-40.43c19.11-9.28,46.51-19.31,48.88-40.42s-21.68-38.41-38.44-52.48-40.8-31.37-38.43-52.48,28.75-30,48.88-40.42c18.86-9.77,46.5-19.32,48.88-40.43,7.41-59.15-95.17-78.06-92.79-99.18C1284.78,101.29,1436.55,122,1429.4,233.89Z" fill="#fc0"/><path id="path833-6-0-6-0-2" d="M1138.9,105.86c12.76,13.36-54.49,74.77-45.12,111.89,3,18.22,44.38,32.95,44.38,32.95s41.34,14.72,44.39,32.94-17.61,33.87-30.94,47.24c-14.22,14.28-34,29-30.94,47.25s27.24,25.95,44.39,32.94,41.33,14.72,44.39,32.95-17.28,34.2-30.94,47.24c-14.16,13.52-34,29-30.94,47.25s27.28,25.84,44.39,32.94c17.91,7.43,41.33,14.72,44.39,32.94s-17.53,34-30.94,47.25c-14.25,14.1-34,29-30.94,47.25s44.39,32.94,44.39,32.94-43.36-12.32-48.45-30.1,13.21-33.52,26-48.16c12.09-13.78,31.13-30.37,26-48.15s-29.54-23.73-48.44-30.1c-18-6.09-43.35-12.32-48.45-30.1s13.24-34.09,26-48.15c12.36-13.57,31.13-30.38,26-48.16s-30.25-24.08-48.44-30.1-43.35-12.32-48.44-30.1,13.24-33.35,26-48.15c12-13.88,31.13-30.38,26-48.16s-48.44-30.1-48.44-30.1-39.9-13.09-48.73-42.09C1051.91,132.36,1129.43,96,1138.9,105.86Z" fill="#2ca02c"/><path id="path833-6-9-2-9-0" d="M873.84,224.88c-7.47,14.76-18.9,32.7-11.45,46.35s28.74,12.92,44.24,13.75c16.23.88,36.79.09,44.24,13.75s-4.49,32-11.44,46.35c-7.39,15.25-18.9,32.7-11.45,46.36s44.24,13.75,44.24,13.75,36.79.09,44.24,13.74-4.59,31.95-11.44,46.36c-7.32,15.38-18.9,32.69-11.45,46.35s28.74,13,44.24,13.75,36.79.09,44.24,13.75-4.23,32.11-11.44,46.35c-7.47,14.76-18.9,32.7-11.44,46.35s28.73,12.92,44.24,13.75c16.23.88,36.78.09,44.24,13.75s-4.5,32-11.45,46.35c-7.38,15.25-18.89,32.7-11.44,46.36S1169,765.8,1169,765.8s-37.72,2.39-46.66-10.35,1.2-30.42,7.31-45.69c5.75-14.39,16.25-33,7.31-45.7s-29.94-10.59-46.66-10.34c-16,.24-37.73,2.39-46.67-10.34s1.06-30.89,7.31-45.7c6-14.28,16.26-33,7.32-45.7s-30.6-10.67-46.67-10.34S973.87,544,964.93,531.3s1.28-30.3,7.31-45.7c5.66-14.42,16.26-33,7.32-45.7s-46.67-10.34-46.67-10.34-37.72,2.39-46.66-10.34,1.2-30.42,7.31-45.7c5.75-14.38,16.25-33,7.31-45.69s-29.94-10.59-46.66-10.34c-16,.23-37.72,2.39-46.67-10.35s1.06-30.88,7.32-45.69c13.47-25.81,67.27-54.33,59-36.57Z" fill="#2a7fff"/><path id="path833-6-3-9-3-2" d="M650.92,394.85c20.72-6.7,31.2-11.89,42-2.94s6.91,28.13,5.46,42.34c-1.51,14.72-5.33,33.38,5.45,42.33s28.57,1.41,42-2.93c14-4.55,31.2-11.89,42-2.94s6.65,28.11,5.45,42.34c-1.27,15.1-5.32,33.38,5.46,42.33s42-2.93,42-2.93,31.21-11.89,42-2.94,6.55,28.11,5.45,42.34c-1.17,15.19-5.33,33.38,5.45,42.33s28.6,1.49,42-2.93,31.21-11.89,42-2.94,6.9,28.14,5.45,42.34c-1.51,14.72-5.33,33.38,5.45,42.33s28.58,1.41,42-2.93c14-4.55,31.21-11.89,42-2.93s6.65,28.11,5.46,42.33c-1.27,15.1-5.33,33.38,5.45,42.34s42-2.94,42-2.94-31.19,14.26-42.93,6.56-8.93-25.73-8.74-40.44c.18-13.86,3-32.75-8.74-40.44s-28.83.91-42.93,6.55c-13.46,5.39-31.19,14.26-42.93,6.56s-9.2-26.07-8.74-40.44c.45-13.86,3-32.75-8.73-40.45s-29.42,1.06-42.93,6.56-31.19,14.26-42.93,6.56-8.82-25.65-8.74-40.44c.08-13.86,3-32.74-8.74-40.44s-42.93,6.55-42.93,6.55-31.18,14.26-42.92,6.56-8.93-25.73-8.74-40.44c.17-13.86,3-32.74-8.74-40.44s-28.83.91-42.93,6.55c-13.46,5.39-31.19,14.26-42.93,6.56s-9.2-26.07-8.74-40.44c.45-13.86,3-32.74-8.73-40.44S624.7,445.6,608.64,450s21.56-48.47,42.28-55.16Z" fill="#7f2aff"/></g></g></svg>