<?xml version="1.0" encoding="utf-8"?>
<!DOCTYPE svg PUBLIC "-//W3C//DTD SVG 1.1//EN" "http://www.w3.org/Graphics/SVG/1.1/DTD/svg11.dtd">
<svg version="1.1" id="Layer_1" xmlns="http://www.w3.org/2000/svg" xmlns:xlink="http://www.w3.org/1999/xlink" x="0px" y="0px"
	 width="512px" height="556px" viewBox="0 0 512 556" enable-background="new 0 0 512 556"
	 xml:space="preserve">

<!-- 
    EMBED IMAGE
-->
	<image overflow="visible" width="2048" height="2048" xlink:href="SE-1024-2020-01-21--12h16.JPG"  transform="matrix(0.25 0 0 0.25 0 0)">
	</image>

<!-- 
    CREATE IMAGE LEGEND
-->

<g font-family="'CamingoDosPro-Regular', 'Helvetica'" transform="translate(0,512)">

<rect y="0" fill="#006990" width="512" height="44"/>

<g  fill="none" stroke="#5CC7EF" stroke-width="0.5" stroke-linecap="butt">
	<line x1="128" y1="5" x2="128" y2="39"/>
	<line x1="256" y1="5" x2="256" y2="39"/>
	<line stroke-width="5" x1="290" y1="9" x2="393" y2="9"/>
</g>

<g id="beam_properties">
<text fill="#4BA6BF" font-size="8" text-anchor="end">
	<tspan x="77" y="11">BEAM ENERGY</tspan>
	<tspan x="77" y="24">GUN LENS</tspan>
	<tspan x="77" y="37">OBJECTIVE LENS</tspan>
	<tspan x="352" y="24">MAGNIFICATION</tspan>
</text>

<text fill="#5CC7EF" font-weight="bold" font-size="8" text-anchor="start">
	<tspan x="82" y="11">6.00 keV</tspan>
	<tspan x="82" y="24">1.2000 A</tspan>
	<tspan x="82" y="37">0.3255 A</tspan>
	<tspan x="362" y="24">26.4 k</tspan>
</text>
</g>

<g id="sample_properties" transform="translate(128 0)">
<text fill="#4BA6BF" font-size="8" text-anchor="end">
	<tspan x="77" y="11">TEMPERATURE</tspan>
	<tspan x="77" y="24">DWELL TIME</tspan>
	<!--tspan x="77" y="24"></tspan>
	<tspan x="77" y="37">Dwell Time</tspan-->
</text>

<text fill="#5CC7EF" font-weight="bold" font-size="8" text-anchor="start">
	<tspan x="82" y="11">Unknown</tspan>
	<tspan x="82" y="24">10.0 us</tspan>
	<!--tspan x="82" y="24">100 ms</tspan>
	<tspan x="82" y="37">10 nA</tspan-->
</text>
</g>

<text fill="#5CC7EF" font-weight="bold" font-size="10" text-anchor="start">
	<tspan x="436" y="12">1 um</tspan>
</text>

<text fill="#4BA6BF" font-size="10" font-weight="normal" text-anchor="end">
	<tspan x="431" y="37">© 2017 Attolight AG</tspan>
</text>

</g>



</svg>
