<svg id="Layer_1" data-name="Layer 1" xmlns="http://www.w3.org/2000/svg" viewBox="0 0 1165 544"><defs><style>.cls-1{fill:#fff;}.cls-2{fill:none;stroke:#fff;stroke-linecap:round;stroke-miterlimit:10;stroke-width:6.42px;}.cls-3{fill:red;}.cls-4{fill:#ff7f2a;}.cls-5{fill:#fc0;}.cls-6{fill:#2ca02c;}.cls-7{fill:#2a7fff;}.cls-8{fill:#7f2aff;}</style></defs><rect width="1165" height="544"/><path class="cls-1" d="M694.2,437q-16.59-5-26.24-13.4l9.88-22.18A77.8,77.8,0,0,0,701,413.64a84.19,84.19,0,0,0,27.56,4.72q17.13,0,25.59-5.49t8.46-14.49a14.07,14.07,0,0,0-4.72-10.88,33.24,33.24,0,0,0-12-6.69q-7.26-2.42-19.77-5.5A229.75,229.75,0,0,1,697.72,367a46.73,46.73,0,0,1-18.67-13.07q-7.8-8.89-7.8-24a41.06,41.06,0,0,1,6.92-23.17q6.92-10.43,20.86-16.58T733.19,284a110.42,110.42,0,0,1,27.67,3.51c9.08,2.34.73,25.33-6.59,23.28a78.83,78.83,0,0,0-21.3-3.07q-16.92,0-25.15,5.71t-8.24,15.15a13.69,13.69,0,0,0,4.72,10.76,34,34,0,0,0,12,6.59q7.26,2.43,19.77,5.49a209.29,209.29,0,0,1,28.11,8.24,48.12,48.12,0,0,1,18.78,13.07q7.8,8.79,7.8,23.72a40.52,40.52,0,0,1-6.92,23.06q-6.91,10.34-21,16.47t-34.27,6.15A117.18,117.18,0,0,1,694.2,437Z"/><path class="cls-1" d="M349.6,322.43V439.71H323.46V424.78A43.72,43.72,0,0,1,307,437a53.09,53.09,0,0,1-21.31,4.28q-23.49,0-37-13.07t-13.51-38.76v-67h27.45v63.26q0,15.81,7.14,23.61t20.32,7.79q14.71,0,23.39-9.11t8.67-26.25v-59.3Z"/><path class="cls-1" d="M568.79,334q13,12.85,13,38.55v67.2H554.3V376q0-15.37-6.81-23.17t-19.55-7.8q-13.83,0-22.18,9.12t-8.35,26v59.52H470V376q0-15.37-6.81-23.17t-19.55-7.8q-14.06,0-22.29,9t-8.24,26.13v59.52H385.62V322.43h26.14v14.94a42.54,42.54,0,0,1,16.47-12.08,56,56,0,0,1,22-4.18,53.11,53.11,0,0,1,23.39,4.94,38.08,38.08,0,0,1,16.15,14.61,49,49,0,0,1,18.66-14.39,60.69,60.69,0,0,1,25.26-5.16Q555.84,321.11,568.79,334Z"/><path class="cls-1" d="M618.21,298.38a16.19,16.19,0,0,1,0-23.5,17.63,17.63,0,0,1,12.52-4.72,18.14,18.14,0,0,1,12.52,4.5,14.5,14.5,0,0,1,5,11.31,16.58,16.58,0,0,1-4.94,12.19,17.1,17.1,0,0,1-12.63,4.94A17.63,17.63,0,0,1,618.21,298.38Zm-1.32,24.05h27.46V439.71H616.89Z"/><path class="cls-1" d="M786.16,306c-3.21,9.63-28,16.53-34.26,13.92-3.27-1.36-11.33-12.85-18.2-12.85a91.78,91.78,0,0,0-11.78,1.05V284.62c3.43-.25,12.85,0,13.92,0,11.92,0,23.62-9.29,30-6.42S789.29,296.67,786.16,306Z"/><path class="cls-1" d="M911.53,328.58a53.89,53.89,0,0,1,21.19,21.08q7.69,13.63,7.69,31.41t-7.69,31.52a53.59,53.59,0,0,1-21.19,21.19q-13.51,7.47-30.64,7.47-23.71,0-37.56-15.81v56.88H815.88V322.43H842V337.8a42.35,42.35,0,0,1,16.8-12.51,56.76,56.76,0,0,1,22.07-4.18Q898,321.11,911.53,328.58Zm-8.79,79.07q9.78-10.11,9.78-26.58t-9.78-26.57q-9.76-10.11-24.92-10.11A35.32,35.32,0,0,0,860,348.9a32.44,32.44,0,0,0-12.52,12.84,42.75,42.75,0,0,0,0,38.66A32.41,32.41,0,0,0,860,413.25a35.32,35.32,0,0,0,17.79,4.5Q893,417.75,902.74,407.65Z"/><line class="cls-2" x1="776.53" y1="302.83" x2="791.52" y2="307.11"/><line class="cls-2" x1="805.11" y1="300.06" x2="791.84" y2="307.73"/><line class="cls-2" x1="799.82" y1="320.95" x2="792.16" y2="307.68"/><path class="cls-1" d="M168.85,312.62q-7.68-19.11-18.66-26.9t-26.58-7.8a54.73,54.73,0,0,0-17.36,2.86,38.59,38.59,0,0,0-14,7.9l11,20.21a29.64,29.64,0,0,1,9.34-5.92,28.43,28.43,0,0,1,10.87-2.21,18.71,18.71,0,0,1,12,3.74q4.51,3.58,8.33,11.77c.12.24.22.49.34.74l2,4.62,14.27,31,37.13,86.77h26.36Z"/><path class="cls-1" d="M149.1,375.12l-25.71,64.24H94.84l39.21-98C138.7,352,144.44,364.46,149.1,375.12Z"/><path class="cls-1" d="M1017.89,448.23q-7.68,19.11-18.67,26.91t-26.57,7.79a54.45,54.45,0,0,1-17.36-2.86,38.57,38.57,0,0,1-14.06-7.9l11-20.2a29.88,29.88,0,0,0,9.34,5.92,28.55,28.55,0,0,0,10.86,2.2,18.75,18.75,0,0,0,12-3.73c3-2.39,5.8-6.32,8.33-11.77l.35-.75,2-4.62,14.27-31,37.12-86.76h26.36Z"/><path class="cls-1" d="M998.14,385.73,972.42,321.5H943.88l39.2,98C987.74,408.84,993.48,396.4,998.14,385.73Z"/><path id="path833-6-75-1-8" class="cls-3" d="M827.29,216.3c-6.4-5.58-13.16-13.5-20.74-11.69s-10.18,12.21-12.65,19.64-5.07,17.84-12.66,19.65-14.87-6.31-20.74-11.7c-6.08-5.58-13.16-13.5-20.74-11.7s-10.14,12.24-12.65,19.65c-2.64,7.76-5.07,17.84-12.65,19.65s-14.79-6.43-20.75-11.7c-6.33-5.61-13.15-13.51-20.74-11.7S660.32,256,660.32,256s4-18.62,11.34-21.27,14.47,4.61,21,9.61c6.14,4.7,13.64,12.25,21,9.6s9.18-13.12,11.34-21.27c2.07-7.78,4-18.63,11.35-21.28s14.72,4.61,21,9.61c6,4.82,13.64,12.26,21,9.61s9.31-13.44,11.34-21.28,4-18.62,11.35-21.27,14.4,4.63,21,9.6c11.21,11.28,11.5,24,5.3,18.61Z"/><path id="path833-6-2-3-2-7" class="cls-4" d="M737,137c-5,4.95-2.26,16.4-.73,23.33s4.35,16.22-.63,21.17-14.3,2-21.28.6c-7.23-1.5-16.3-4.35-21.27.6s-2.12,14.23-.64,21.17c1.56,7.26,4.35,16.22-.63,21.16s-14.28,1.92-21.27.61c-7.43-1.4-16.3-4.35-21.28.6s-.63,21.17-.63,21.17-5.53-16.34-1.12-21.83,13.21-3.17,20.5-2.34c6.87.79,16.1,3.15,20.5-2.34s1-14.48-1.12-21.82c-2-7-5.52-16.33-1.12-21.82s13.4-3.3,20.5-2.34c6.86.92,16.1,3.14,20.51-2.35s.93-14.78-1.13-21.82S721,136,725,128.93C747,113,757,134,785,137c3.71.4-3,11.19-8,10C747.8,140,746,130,737,137Z"/><path id="path833-6-7-5-7-9" class="cls-5" d="M694.9,100.19c-1.9,5.68-10.23,7.13-16.1,9-6.27,2-14.2,3.32-16.1,9s3.87,11.47,7.73,16,9.63,10.32,7.73,16-10.18,7.28-16.1,9c-6.13,1.79-14.2,3.32-16.1,9s3.9,11.44,7.73,16c4,4.78,9.63,10.32,7.73,16s-10.21,7.17-16.1,9c-6.24,1.95-14.19,3.32-16.09,9s7.73,16,7.73,16-10.58-9.92-9.33-15.78,8.91-7.68,14.83-10c5.57-2.17,13.57-4.13,14.82-10s-4.86-11.17-9.32-15.79c-4.26-4.41-10.58-9.92-9.33-15.78s9-7.84,14.83-10c5.61-2.07,13.57-4.13,14.82-10s-5-11.38-9.32-15.79-10.58-9.92-9.33-15.78,8.89-7.62,14.83-10c5.55-2.21,13.57-4.13,14.82-10C683,79,654.75,70.86,656,65,658,59,700,69,694.9,100.19Z"/><path id="path833-6-0-6-0-2" class="cls-6" d="M592,60c3.83,3.53-14,22-10.71,32.28,1.19,5.07,13.08,8.47,13.08,8.47s11.88,3.41,13.07,8.48-4.36,9.84-7.87,13.84c-3.75,4.27-9.05,8.77-7.86,13.84s8.12,6.82,13.07,8.48,11.89,3.41,13.07,8.48-4.25,9.93-7.86,13.84-9,8.77-7.87,13.84,8.14,6.78,13.07,8.48c5.17,1.77,11.89,3.4,13.07,8.48s-4.32,9.86-7.86,13.84c-3.76,4.22-9,8.76-7.86,13.84s13.07,8.47,13.07,8.47-12.42-2.69-14.16-7.6,3.12-9.67,6.47-14c3.15-4.09,8.21-9.1,6.46-14s-8.73-6.15-14.16-7.61c-5.18-1.39-12.41-2.69-14.16-7.6s3.12-9.83,6.47-14,8.22-9.1,6.47-14-8.93-6.24-14.16-7.61-12.41-2.69-14.16-7.6,3.13-9.62,6.47-14c3.12-4.12,8.21-9.1,6.47-14S579.46,105,579.46,105,568,102,565,94C568,69,589.16,57.38,592,60Z"/><path id="path833-6-9-2-9-0" class="cls-7" d="M497.85,120.13c-1.07,4.54-3,10.21-.06,13.46s8.73,1.63,13,.83c4.51-.84,10.08-2.42,13,.83s.89,9.06-.06,13.46c-1,4.66-3,10.21-.06,13.45s13,.84,13,.84,10.09-2.42,13,.83.87,9-.06,13.45c-1,4.7-3,10.22-.06,13.46s8.74,1.66,13,.83,10.09-2.41,13,.83,1,9.08-.06,13.46c-1.07,4.54-3,10.21-.06,13.46s8.72,1.63,13,.83c4.5-.83,10.08-2.41,13,.83s.89,9.06-.06,13.46c-1,4.67-3,10.21-.06,13.46s13,.83,13,.83-10.18,3.16-13.47.26-1.69-8.41-1-13c.62-4.33,2.27-10.11-1-13s-8.9-.91-13.47.27c-4.36,1.12-10.17,3.15-13.47.26s-1.75-8.53-1-13c.7-4.32,2.26-10.11-1-13s-9.09-.89-13.47.26-10.18,3.16-13.47.27-1.66-8.39-1-13c.59-4.32,2.27-10.1-1-13s-13.47.26-13.47.26-10.17,3.16-13.46.27-1.69-8.42-1-13c.62-4.32,2.26-10.11-1-13s-8.9-.91-13.47.26c-4.36,1.13-10.17,3.16-13.47.26s-1.76-8.53-1-13c2-8,14.83-19.35,13.74-13.93Z"/><path id="path833-6-3-9-3-2" class="cls-8" d="M436.57,210.05c4.6-4.07,6.72-6.59,10.52-5.5s5,6.49,6.18,10.32,2.4,9.22,6.19,10.32,7.54-2.86,10.51-5.5,6.72-6.59,10.52-5.5,4.89,6.51,6.18,10.32c1.38,4,2.4,9.22,6.19,10.32s10.51-5.5,10.51-5.5,6.72-6.59,10.52-5.5,4.86,6.52,6.18,10.32c1.41,4.06,2.4,9.22,6.19,10.32s7.55-2.85,10.51-5.5,6.72-6.59,10.51-5.5,5,6.49,6.19,10.32,2.39,9.22,6.19,10.32,7.54-2.86,10.51-5.5c3.12-2.76,6.72-6.59,10.51-5.5s4.89,6.51,6.19,10.32c1.38,4,2.39,9.22,6.19,10.32s10.51-5.5,10.51-5.5-6.44,7.2-10.34,6.54-5.22-5.64-6.83-9.46c-1.52-3.6-2.92-8.79-6.82-9.46s-7.34,3.5-10.35,6.54-6.44,7.21-10.34,6.54-5.32-5.69-6.83-9.45-2.92-8.8-6.82-9.46-7.48,3.59-10.34,6.54-6.45,7.2-10.35,6.54-5.18-5.63-6.82-9.46c-1.55-3.59-2.92-8.8-6.83-9.46s-10.34,6.54-10.34,6.54-6.45,7.2-10.35,6.54-5.21-5.64-6.82-9.46c-1.52-3.6-2.92-8.79-6.82-9.46s-7.35,3.5-10.35,6.55-6.45,7.2-10.35,6.54-5.32-5.7-6.82-9.46-2.92-8.8-6.82-9.46-6.7,3.59-10.35,6.54.1-14.95,4.69-19Z"/></svg>