<svg id="Layer_1" data-name="Layer 1" xmlns="http://www.w3.org/2000/svg" viewBox="0 0 533.98 533.98"><defs><style>.cls-1{fill:#fff;}.cls-2{fill:red;}.cls-3{fill:#ff7f2a;}.cls-4{fill:#fc0;}.cls-5{fill:#2ca02c;}.cls-6{fill:#2a7fff;}.cls-7{fill:#7f2aff;}</style></defs><rect width="534" height="534"/><path class="cls-1" d="M203.32,202.89q-10.56-26.29-25.67-37t-36.54-10.72a75,75,0,0,0-23.87,3.94A53,53,0,0,0,97.9,170L113,197.75a41.08,41.08,0,0,1,12.84-8.15,39.31,39.31,0,0,1,15-3q10,0,16.46,5.14c4.14,3.28,8,8.69,11.45,16.18.17.34.31.68.48,1l2.72,6.35,19.63,42.58,51.05,119.31h36.25Z"/><path class="cls-1" d="M176.16,288.83,140.8,377.16H101.54l53.92-134.78C161.86,257.05,169.75,274.16,176.16,288.83Z"/><path class="cls-1" d="M362.15,416.66q-10.54,26.28-25.66,37t-36.55,10.72a75,75,0,0,1-23.86-3.93,52.89,52.89,0,0,1-19.34-10.87l15.11-27.78a40.88,40.88,0,0,0,12.84,8.14,39.12,39.12,0,0,0,14.94,3c6.64,0,12.14-1.73,16.47-5.14q6.19-4.93,11.45-16.19c.16-.33.31-.67.47-1l2.73-6.34,19.62-42.59,51.05-119.31h36.26Z"/><path class="cls-1" d="M335,330.72l-35.37-88.34H260.38l53.91,134.78C320.7,362.5,328.59,345.38,335,330.72Z"/><path id="path833-6-75-1-8" class="cls-2" d="M520.41,111.82c-8.19-2.27-17.71-6.48-23.77-1.57s-3.89,15.42-2.9,23.19,3.15,18.27-2.91,23.18-16.14.75-23.76-1.57c-7.9-2.4-17.71-6.49-23.77-1.57s-3.84,15.41-2.9,23.18c1,8.14,3.15,18.28-2.91,23.19s-16.1.6-23.76-1.58C405.6,196,396,191.79,390,196.7s-2.9,23.19-2.9,23.19-4.46-18.52,1-24.09,15.05-2.1,23.08-.42c7.57,1.58,17.61,5.15,23.08-.42s2.6-15.8,1-24.09c-1.51-7.91-4.46-18.52,1-24.09s15.26-2.21,23.08-.42c7.54,1.73,17.6,5.15,23.08-.42s2.58-16.13,1-24.08-4.45-18.52,1-24.09,15-2,23.08-.42c15,5.31,20.75,16.66,12.83,14.48Z"/><path id="path833-6-2-3-2-7" class="cls-3" d="M431.72,84c-3.46,6.11,2.25,16.41,5.59,22.66s8.56,14.45,5.09,20.56-13.22,5.82-20.32,6.31c-7.37.51-16.87.21-20.33,6.32s1.79,14.28,5.09,20.55c3.46,6.57,8.56,14.45,5.1,20.56s-13.23,5.69-20.33,6.31c-7.53.66-16.87.21-20.33,6.31s5.1,20.56,5.1,20.56-9.72-14.24-7-20.72,11.87-6.61,19.11-7.78c6.83-1.09,16.35-1.3,19.12-7.78s-3-14.21-7-20.71c-3.83-6.21-9.73-14.24-7-20.71s12-6.78,19.11-7.78c6.85-1,16.35-1.31,19.11-7.78s-3.08-14.49-7-20.71S416,87.31,418,79.42C434.88,58.16,450.17,75.68,478,71c3.68-.62.12,11.59-5,11.78C442.94,84,438.5,74.8,431.72,84Z"/><path id="path833-6-7-5-7-9" class="cls-4" d="M402.89,65.92c-1.34,5.84-9.48,8.1-15.14,10.54-6,2.61-13.8,4.7-15.14,10.54s5,11,9.27,15.17,10.59,9.32,9.26,15.16-9.42,8.24-15.14,10.55c-5.92,2.38-13.8,4.69-15.13,10.54s5,11,9.26,15.16c4.46,4.36,10.6,9.33,9.26,15.17s-9.46,8.13-15.13,10.54c-6,2.55-13.81,4.7-15.14,10.54S358.38,205,358.38,205s-11.5-8.84-10.83-14.79,8.11-8.51,13.78-11.39c5.33-2.72,13.1-5.45,13.77-11.4s-5.94-10.63-10.83-14.79c-4.67-4-11.5-8.84-10.83-14.79s8.19-8.68,13.77-11.39C372.6,123.82,380.32,121,381,115s-6.11-10.82-10.83-14.79-11.5-8.84-10.84-14.79S367.43,77,373.1,74.07c5.32-2.76,13.11-5.45,13.78-11.4,2.09-16.67-26.83-22-26.16-27.95C362.12,28.55,404.9,34.38,402.89,65.92Z"/><path id="path833-6-0-6-0-2" class="cls-5" d="M321,29.84c3.6,3.76-15.36,21.07-12.72,31.54.86,5.13,12.51,9.28,12.51,9.28s11.65,4.15,12.51,9.29-5,9.54-8.72,13.31c-4,4-9.58,8.18-8.72,13.32s7.68,7.31,12.51,9.28S340,120,340.89,125.15s-4.87,9.64-8.72,13.32-9.58,8.18-8.72,13.31,7.69,7.29,12.51,9.29c5.05,2.09,11.65,4.15,12.51,9.28s-4.94,9.58-8.72,13.32c-4,4-9.58,8.18-8.72,13.32s12.51,9.28,12.51,9.28-12.21-3.47-13.65-8.48,3.72-9.45,7.34-13.58c3.4-3.88,8.77-8.56,7.34-13.57s-8.33-6.69-13.66-8.48c-5.08-1.72-12.21-3.47-13.65-8.49s3.73-9.61,7.34-13.57,8.77-8.56,7.34-13.57-8.53-6.79-13.66-8.49-12.21-3.47-13.65-8.48,3.73-9.4,7.34-13.57c3.38-3.91,8.77-8.56,7.34-13.57s-13.66-8.49-13.66-8.49-11.24-3.69-13.73-11.86C296.49,37.31,318.34,27,321,29.84Z"/><path id="path833-6-9-2-9-0" class="cls-6" d="M246.3,63.38c-2.11,4.16-5.33,9.22-3.23,13.07s8.1,3.64,12.47,3.87c4.58.25,10.37,0,12.47,3.88s-1.27,9-3.23,13.06c-2.08,4.3-5.32,9.22-3.22,13.07S274,114.2,274,114.2s10.37,0,12.47,3.88-1.3,9-3.23,13.06c-2.06,4.34-5.32,9.22-3.22,13.07s8.09,3.67,12.47,3.88,10.36,0,12.47,3.87-1.2,9-3.23,13.07-5.33,9.21-3.23,13.06,8.1,3.64,12.47,3.88c4.58.24,10.37,0,12.47,3.87s-1.26,9-3.22,13.07c-2.08,4.29-5.33,9.21-3.23,13.06s12.47,3.88,12.47,3.88-10.63.67-13.15-2.92.34-8.57,2.06-12.88c1.62-4.06,4.58-9.29,2.06-12.88s-8.44-3-13.15-2.91c-4.5.06-10.63.67-13.15-2.92s.29-8.71,2.06-12.88,4.58-9.29,2.06-12.88-8.63-3-13.15-2.91-10.64.67-13.16-2.92.36-8.54,2.06-12.88c1.6-4.07,4.59-9.29,2.07-12.88s-13.16-2.91-13.16-2.91-10.63.67-13.15-2.92.34-8.57,2.06-12.88c1.62-4,4.58-9.29,2.06-12.88s-8.44-3-13.15-2.91c-4.5.06-10.63.67-13.15-2.92s.29-8.7,2.06-12.88c3.8-7.27,19-15.31,16.63-10.3Z"/><path id="path833-6-3-9-3-2" class="cls-7" d="M183.47,111.29c5.84-1.89,8.79-3.35,11.83-.83s1.95,7.93,1.54,11.94-1.5,9.4,1.53,11.93,8.06.4,11.84-.83c4-1.28,8.79-3.35,11.83-.83s1.88,7.93,1.54,11.94c-.36,4.25-1.5,9.41,1.54,11.93s11.83-.83,11.83-.83,8.8-3.35,11.83-.83,1.85,7.93,1.54,11.94c-.33,4.28-1.5,9.41,1.54,11.93s8.06.42,11.83-.83,8.8-3.35,11.84-.82,1.94,7.92,1.53,11.93-1.5,9.41,1.54,11.93,8,.4,11.83-.83c4-1.28,8.8-3.35,11.84-.82s1.87,7.92,1.54,11.93c-.36,4.25-1.51,9.41,1.53,11.93s11.84-.83,11.84-.83-8.79,4-12.1,1.85-2.52-7.25-2.47-11.4c.05-3.9.85-9.23-2.46-11.4s-8.13.26-12.1,1.85c-3.79,1.52-8.79,4-12.1,1.85s-2.59-7.35-2.46-11.4c.12-3.9.84-9.23-2.46-11.4s-8.3.3-12.1,1.85-8.8,4-12.1,1.85-2.49-7.23-2.47-11.4c0-3.9.85-9.23-2.46-11.4S229.8,165,229.8,165s-8.79,4-12.1,1.85-2.52-7.25-2.46-11.4c0-3.91.84-9.23-2.47-11.4s-8.12.26-12.1,1.85c-3.79,1.52-8.79,4-12.1,1.85s-2.59-7.35-2.46-11.4.85-9.23-2.46-11.4-7.57.6-12.1,1.85,6.08-13.66,11.92-15.55Z"/></svg>